<?xml version="1.0" encoding="UTF-8" standalone="no"?>
<svg width="22px" height="24px" viewBox="0 0 22 24" version="1.1" xmlns="http://www.w3.org/2000/svg" xmlns:xlink="http://www.w3.org/1999/xlink" xmlns:sketch="http://www.bohemiancoding.com/sketch/ns">
    <!-- Generator: Sketch 3.2.2 (9983) - http://www.bohemiancoding.com/sketch -->
    <title>Untitled 2</title>
    <desc>Created with Sketch.</desc>
    <defs></defs>
    <g id="Page-1" stroke="none" stroke-width="1" fill="none" fill-rule="evenodd" sketch:type="MSPage">
        <g id="cd-icon-user" sketch:type="MSLayerGroup" transform="translate(1.000000, 1.000000)" stroke="#998BC1" stroke-width="2">
            <path d="M6.7,14 L1,17.4 C0.4,17.8 0,18.4 0,19.1 L0,22 L20,22 L20,19.1 C20,18.4 19.6,17.7 19,17.4 L13.3,14" id="Shape" sketch:type="MSShapeGroup"></path>
            <path d="M10,15 L10,15 C6.7,15 4,12.3 4,9 L4,6 C4,2.7 6.7,0 10,0 L10,0 C13.3,0 16,2.7 16,6 L16,9 C16,12.3 13.3,15 10,15 L10,15 Z" id="Shape" sketch:type="MSShapeGroup"></path>
        </g>
    </g>
</svg>